<svg width="112" height="112" viewBox="0 0 112 112" fill="none" xmlns="http://www.w3.org/2000/svg">
<mask id="path-1-inside-1_38_233" fill="white">
<path fill-rule="evenodd" clip-rule="evenodd" d="M112 56.1952C112 84.978 90.4359 108.707 62.6355 112L89.9307 49.8721L70.8465 55.5301L68.347 69.1658L56.9747 102.439L56.4744 103.879L56.3144 102.439L52.7193 69.7677L52.6459 60.9119L41.3643 64.1231L42.3741 74.1526L32.5426 102.439L31.9954 104.063L31.8089 102.439L28.654 75.3953V67.7929L17.355 71.0651L21.4434 100.418C8.38709 90.1301 0 74.1455 0 56.1952C0 25.1594 25.0721 0 56 0C86.9279 0 112 25.1594 112 56.1952ZM45.0888 92.208L47.8252 111.796C44.5919 111.321 41.4484 110.57 38.4193 109.565L44.4285 92.208L44.8873 90.8514L45.0888 92.208ZM78.0464 22.637L73.0222 14.7318L69.8255 23.5421L60.7808 25.8942L68.1429 31.6675L67.5772 41.0263L75.3239 35.7842L84.0189 39.2162L81.4446 30.2031L87.3841 22.9653L78.0464 22.637Z"/>
</mask>
<path fill-rule="evenodd" clip-rule="evenodd" d="M112 56.1952C112 84.978 90.4359 108.707 62.6355 112L89.9307 49.8721L70.8465 55.5301L68.347 69.1658L56.9747 102.439L56.4744 103.879L56.3144 102.439L52.7193 69.7677L52.6459 60.9119L41.3643 64.1231L42.3741 74.1526L32.5426 102.439L31.9954 104.063L31.8089 102.439L28.654 75.3953V67.7929L17.355 71.0651L21.4434 100.418C8.38709 90.1301 0 74.1455 0 56.1952C0 25.1594 25.0721 0 56 0C86.9279 0 112 25.1594 112 56.1952ZM45.0888 92.208L47.8252 111.796C44.5919 111.321 41.4484 110.57 38.4193 109.565L44.4285 92.208L44.8873 90.8514L45.0888 92.208ZM78.0464 22.637L73.0222 14.7318L69.8255 23.5421L60.7808 25.8942L68.1429 31.6675L67.5772 41.0263L75.3239 35.7842L84.0189 39.2162L81.4446 30.2031L87.3841 22.9653L78.0464 22.637Z" fill="#F02860"/>
<path d="M62.6355 112L59.8889 110.793L57.7787 115.596L62.9884 114.979L62.6355 112ZM89.9307 49.8721L92.6773 51.0788L95.2788 45.1574L89.078 46.9958L89.9307 49.8721ZM70.8465 55.5301L69.9938 52.6539L68.2278 53.1774L67.8957 54.9892L70.8465 55.5301ZM68.347 69.1658L71.1858 70.1361L71.2578 69.9256L71.2979 69.7067L68.347 69.1658ZM56.9747 102.439L59.8085 103.424L59.811 103.417L59.8135 103.41L56.9747 102.439ZM56.4744 103.879L53.4928 104.211L59.3082 104.864L56.4744 103.879ZM56.3144 102.439L53.3324 102.767L53.3327 102.771L56.3144 102.439ZM52.7193 69.7677L49.7194 69.7925L49.7206 69.9446L49.7373 70.0958L52.7193 69.7677ZM52.6459 60.9119L55.6458 60.8871L55.6132 56.9482L51.8246 58.0266L52.6459 60.9119ZM41.3643 64.1231L40.543 61.2377L38.1278 61.9252L38.3793 64.4237L41.3643 64.1231ZM42.3741 74.1526L45.2079 75.1375L45.4254 74.5115L45.359 73.852L42.3741 74.1526ZM32.5426 102.439L29.7089 101.454L29.7042 101.468L29.6997 101.481L32.5426 102.439ZM31.9954 104.063L29.0151 104.405L34.8383 105.021L31.9954 104.063ZM31.8089 102.439L34.7893 102.097L34.7887 102.092L31.8089 102.439ZM28.654 75.3953H25.654V75.5697L25.6742 75.7429L28.654 75.3953ZM28.654 67.7929H31.654V63.8008L27.8195 64.9113L28.654 67.7929ZM17.355 71.0651L16.5205 68.1835L14.0254 68.9062L14.3837 71.479L17.355 71.0651ZM21.4434 100.418L19.5866 102.775L25.4433 107.389L24.4147 100.004L21.4434 100.418ZM47.8252 111.796L47.3895 114.764L51.3501 115.345L50.7963 111.381L47.8252 111.796ZM45.0888 92.208L48.06 91.7929L48.0582 91.7801L48.0563 91.7672L45.0888 92.208ZM38.4193 109.565L35.5844 108.584L34.59 111.456L37.4753 112.413L38.4193 109.565ZM44.4285 92.208L47.2634 93.1894L47.2669 93.1793L47.2703 93.1692L44.4285 92.208ZM44.8873 90.8514L47.8548 90.4107L42.0455 89.8902L44.8873 90.8514ZM73.0222 14.7318L75.5541 13.1227L72.2825 7.97501L70.2021 13.7086L73.0222 14.7318ZM78.0464 22.637L75.5145 24.2462L76.362 25.5796L77.941 25.6351L78.0464 22.637ZM69.8255 23.5421L70.5806 26.4455L72.1075 26.0484L72.6456 24.5653L69.8255 23.5421ZM60.7808 25.8942L60.0258 22.9908L54.1615 24.5158L58.9296 28.2549L60.7808 25.8942ZM68.1429 31.6675L71.1375 31.8485L71.2324 30.2778L69.9942 29.3068L68.1429 31.6675ZM67.5772 41.0263L64.5827 40.8453L64.2152 46.9237L69.2585 43.5109L67.5772 41.0263ZM75.3239 35.7842L76.4253 32.9937L74.9533 32.4127L73.6426 33.2996L75.3239 35.7842ZM84.0189 39.2162L82.9175 42.0067L88.5736 44.2392L86.9036 38.3923L84.0189 39.2162ZM81.4446 30.2031L79.1255 28.3L78.1282 29.5153L78.5599 31.027L81.4446 30.2031ZM87.3841 22.9653L89.7032 24.8684L93.5505 20.1803L87.4896 19.9672L87.3841 22.9653ZM62.9884 114.979C92.2889 111.508 115 86.5081 115 56.1952H109C109 83.4478 88.583 105.905 62.2826 109.021L62.9884 114.979ZM87.1841 48.6654L59.8889 110.793L65.3821 113.207L92.6773 51.0788L87.1841 48.6654ZM71.6993 58.4064L90.7835 52.7483L89.078 46.9958L69.9938 52.6539L71.6993 58.4064ZM71.2979 69.7067L73.7974 56.071L67.8957 54.9892L65.3962 68.6249L71.2979 69.7067ZM59.8135 103.41L71.1858 70.1361L65.5083 68.1956L54.1359 101.469L59.8135 103.41ZM59.3082 104.864L59.8085 103.424L54.1409 101.455L53.6406 102.895L59.3082 104.864ZM53.3327 102.771L53.4928 104.211L59.456 103.548L59.296 102.108L53.3327 102.771ZM49.7373 70.0958L53.3324 102.767L59.2964 102.111L55.7013 69.4396L49.7373 70.0958ZM49.646 60.9368L49.7194 69.7925L55.7192 69.7428L55.6458 60.8871L49.646 60.9368ZM42.1855 67.0085L53.4672 63.7973L51.8246 58.0266L40.543 61.2377L42.1855 67.0085ZM45.359 73.852L44.3492 63.8225L38.3793 64.4237L39.3892 74.4531L45.359 73.852ZM35.3763 103.424L45.2079 75.1375L39.5404 73.1677L29.7089 101.454L35.3763 103.424ZM34.8383 105.021L35.3855 103.398L29.6997 101.481L29.1526 103.105L34.8383 105.021ZM28.8285 102.782L29.0151 104.405L34.9758 103.72L34.7893 102.097L28.8285 102.782ZM25.6742 75.7429L28.8291 102.787L34.7887 102.092L31.6338 75.0477L25.6742 75.7429ZM25.654 67.7929V75.3953H31.654V67.7929H25.654ZM18.1896 73.9467L29.4885 70.6745L27.8195 64.9113L16.5205 68.1835L18.1896 73.9467ZM24.4147 100.004L20.3264 70.6513L14.3837 71.479L18.472 100.832L24.4147 100.004ZM-3 56.1952C-3 75.1012 5.83762 91.9407 19.5866 102.775L23.3001 98.0618C10.9366 88.3196 3 73.1899 3 56.1952H-3ZM56 -3C23.4054 -3 -3 23.5124 -3 56.1952H3C3 26.8064 26.7387 3 56 3V-3ZM115 56.1952C115 23.5124 88.5946 -3 56 -3V3C85.2613 3 109 26.8064 109 56.1952H115ZM50.7963 111.381L48.06 91.7929L42.1177 92.623L44.854 112.211L50.7963 111.381ZM37.4753 112.413C40.6685 113.472 43.9821 114.264 47.3895 114.764L48.2608 108.828C45.2018 108.379 42.2283 107.668 39.3634 106.718L37.4753 112.413ZM41.5936 91.2265L35.5844 108.584L41.2543 110.547L47.2634 93.1894L41.5936 91.2265ZM42.0455 89.8902L41.5867 91.2467L47.2703 93.1692L47.7292 91.8127L42.0455 89.8902ZM48.0563 91.7672L47.8548 90.4107L41.9199 91.2922L42.1214 92.6487L48.0563 91.7672ZM70.4903 16.341L75.5145 24.2462L80.5783 21.0278L75.5541 13.1227L70.4903 16.341ZM72.6456 24.5653L75.8423 15.7551L70.2021 13.7086L67.0054 22.5188L72.6456 24.5653ZM61.5359 28.7976L70.5806 26.4455L69.0705 20.6386L60.0258 22.9908L61.5359 28.7976ZM69.9942 29.3068L62.6321 23.5335L58.9296 28.2549L66.2917 34.0282L69.9942 29.3068ZM70.5717 41.2074L71.1375 31.8485L65.1484 31.4865L64.5827 40.8453L70.5717 41.2074ZM73.6426 33.2996L65.8959 38.5417L69.2585 43.5109L77.0052 38.2688L73.6426 33.2996ZM85.1204 36.4257L76.4253 32.9937L74.2225 38.5747L82.9175 42.0067L85.1204 36.4257ZM78.5599 31.027L81.1343 40.0401L86.9036 38.3923L84.3292 29.3792L78.5599 31.027ZM85.0651 21.0622L79.1255 28.3L83.7637 32.1062L89.7032 24.8684L85.0651 21.0622ZM77.941 25.6351L87.2787 25.9635L87.4896 19.9672L78.1518 19.6388L77.941 25.6351Z" fill="#E1104B" mask="url(#path-1-inside-1_38_233)"/>
</svg>
