<svg width="480" height="600" viewBox="0 0 480 600" fill="none" xmlns="http://www.w3.org/2000/svg">
<rect width="480" height="600" fill="#D9D9D9"/>
<rect x="131" y="204" width="218.659" height="218.659" fill="#DFDFDF"/>
<path fill-rule="evenodd" clip-rule="evenodd" d="M292.1 289.171C292.1 315.588 272.239 337.366 246.634 340.389L271.774 283.367L254.197 288.56L251.895 301.075L241.421 331.614L240.96 332.935L240.813 331.614L237.502 301.628L237.434 293.5L227.044 296.447L227.974 305.652L218.919 331.614L218.415 333.104L218.243 331.614L215.338 306.793V299.815L204.931 302.818L208.697 329.759C196.672 320.316 188.947 305.646 188.947 289.171C188.947 260.686 212.039 237.595 240.523 237.595C269.008 237.595 292.1 260.686 292.1 289.171ZM230.474 322.223L232.994 340.201C230.016 339.766 227.121 339.076 224.331 338.154L229.866 322.223L230.288 320.978L230.474 322.223ZM262.77 260.313L258.143 253.057L255.198 261.143L246.868 263.302L253.649 268.601L253.128 277.19L260.262 272.379L268.271 275.529L265.9 267.257L271.37 260.614L262.77 260.313Z" fill="#B3B3B3"/>
<path d="M186.687 367.397H182.326L180.26 360.308H180.005L177.965 367.397H173.579L169.269 350.949H173.298L173.553 353.193L175.925 363.19H176.18L178.603 354.876L177.583 350.949H181.765L182.122 353.601L184.596 363.19H184.851L187.631 353.422L188.064 350.949H191.889L186.687 367.397ZM199.843 350.694C202.189 350.694 203.999 351.399 205.274 352.81C206.55 354.204 207.187 356.193 207.187 358.778C207.187 361.6 206.49 363.793 205.096 365.357C203.702 366.904 201.738 367.678 199.205 367.678C196.876 367.678 195.074 366.964 193.799 365.536C192.523 364.091 191.886 362.051 191.886 359.415C191.886 356.627 192.574 354.476 193.952 352.963C195.346 351.45 197.309 350.694 199.843 350.694ZM199.486 354.009C198.686 354.009 198.049 354.17 197.573 354.493C197.097 354.799 196.748 355.309 196.527 356.023C196.306 356.721 196.196 357.673 196.196 358.88C196.196 360.325 196.306 361.464 196.527 362.297C196.748 363.113 197.097 363.7 197.573 364.057C198.066 364.414 198.729 364.592 199.562 364.592C200.378 364.592 201.024 364.439 201.5 364.133C201.976 363.81 202.316 363.292 202.52 362.578C202.741 361.863 202.852 360.886 202.852 359.645C202.852 358.217 202.741 357.095 202.52 356.279C202.299 355.462 201.951 354.884 201.475 354.544C200.999 354.187 200.336 354.009 199.486 354.009ZM218.96 360.894C220.371 363.088 221.646 364.932 222.785 366.428L222.734 366.887C221.442 367.312 220.073 367.576 218.628 367.678L218.22 367.346C217.2 365.442 216.316 363.7 215.568 362.119H213.4L213.553 367.397H209.396L209.626 362.527L209.396 350.949L216.333 350.923C218.118 350.923 219.487 351.357 220.439 352.224C221.408 353.074 221.892 354.298 221.892 355.896C221.892 356.899 221.637 357.834 221.127 358.701C220.617 359.568 219.895 360.299 218.96 360.894ZM213.477 359.007L215.695 359.109C216.324 358.871 216.783 358.523 217.072 358.064C217.378 357.605 217.531 357.01 217.531 356.279C217.531 355.479 217.319 354.893 216.894 354.519C216.486 354.128 215.84 353.915 214.956 353.881L213.579 353.958L213.477 359.007ZM234.323 364.312L234.042 367.397H224.785L225.014 362.527L224.785 350.949H228.993L228.763 362.119L228.84 364.006H234.068L234.323 364.312ZM243.106 350.847C245.52 350.847 247.365 351.51 248.64 352.836C249.915 354.145 250.552 356.04 250.552 358.523C250.552 361.447 249.821 363.691 248.359 365.255C246.897 366.819 244.806 367.601 242.086 367.601C240.522 367.601 238.549 367.533 236.169 367.397H236.144L236.373 362.527L236.144 350.949H236.169L243.106 350.847ZM242.851 364.465C245.112 364.465 246.243 362.816 246.243 359.517C246.243 357.579 245.971 356.193 245.427 355.36C244.882 354.527 243.998 354.111 242.774 354.111C241.873 354.111 241.049 354.145 240.301 354.213L240.148 362.119L240.199 364.261C241.202 364.397 242.086 364.465 242.851 364.465ZM272.732 367.397H268.371L266.305 360.308H266.05L264.01 367.397H259.624L255.314 350.949H259.343L259.598 353.193L261.97 363.19H262.225L264.648 354.876L263.628 350.949H267.81L268.167 353.601L270.641 363.19H270.896L273.676 353.422L274.109 350.949H277.934L272.732 367.397ZM283.631 362.119L283.784 367.397H279.627L279.856 362.527L279.627 350.949H283.86L283.631 362.119ZM293.159 350.694C294.621 350.694 296.1 350.983 297.596 351.561L296.933 355.029L296.321 355.258C295.675 354.833 295.029 354.502 294.383 354.264C293.737 354.026 293.176 353.907 292.7 353.907C292.139 353.907 291.688 354.051 291.348 354.34C291.025 354.612 290.864 354.935 290.864 355.309C290.864 355.734 291.068 356.1 291.476 356.406C291.901 356.695 292.564 357.044 293.465 357.452C294.417 357.894 295.182 358.302 295.76 358.676C296.355 359.033 296.865 359.517 297.29 360.129C297.732 360.741 297.953 361.489 297.953 362.374C297.953 363.36 297.681 364.252 297.137 365.051C296.61 365.85 295.854 366.488 294.867 366.964C293.881 367.423 292.742 367.652 291.45 367.652C289.733 367.652 288.033 367.312 286.35 366.632L286.936 362.935L287.37 362.68C288.084 363.275 288.857 363.742 289.691 364.082C290.541 364.405 291.272 364.567 291.884 364.567C292.53 364.567 293.014 364.422 293.337 364.133C293.677 363.844 293.847 363.504 293.847 363.113C293.847 362.654 293.635 362.272 293.21 361.965C292.785 361.659 292.122 361.302 291.221 360.894C290.303 360.469 289.546 360.078 288.951 359.721C288.373 359.347 287.871 358.854 287.446 358.242C287.021 357.63 286.809 356.882 286.809 355.998C286.809 354.995 287.072 354.094 287.599 353.295C288.143 352.479 288.891 351.841 289.844 351.382C290.813 350.923 291.918 350.694 293.159 350.694ZM311.361 364.031L311.591 364.337L311.336 367.397H300.472L300.702 362.527L300.472 350.949H311.489L311.718 351.255L311.438 354.315L307.434 354.162L304.629 354.187L304.578 357.477H307.256L309.933 357.401L310.163 357.707L309.908 360.767L306.975 360.69H304.501L304.476 362.119L304.527 364.159L307.23 364.184L311.361 364.031Z" fill="#B3B3B3"/>
<path d="M211.25 384.479H208.725L208.465 383.055L208.327 382.489L206.552 382.459L205.022 382.505L204.9 382.902L204.625 384.479H202.192L205.374 374.609H208.358L211.25 384.479ZM207.853 380.623L206.889 376.874H206.736L205.589 380.623L206.721 380.653L207.853 380.623ZM216.702 374.548C218.151 374.548 219.258 374.946 220.023 375.741C220.788 376.527 221.17 377.664 221.17 379.154C221.17 380.908 220.732 382.255 219.854 383.193C218.977 384.132 217.722 384.601 216.09 384.601C215.152 384.601 213.968 384.56 212.54 384.479H212.525L212.663 381.556L212.525 374.609H212.54L216.702 374.548ZM216.549 382.719C217.906 382.719 218.584 381.729 218.584 379.75C218.584 378.588 218.421 377.756 218.095 377.256C217.768 376.756 217.238 376.507 216.503 376.507C215.963 376.507 215.468 376.527 215.019 376.568L214.927 381.311L214.958 382.596C215.56 382.678 216.09 382.719 216.549 382.719ZM233.154 384.479H230.966L230.843 381.479L230.568 378.236H230.415L228.456 383.484H226.559L224.845 378.236H224.677L224.371 381.25L224.172 384.479H222.106L223.086 374.609H225.947L226.299 376.047L227.569 380.271H227.722L229.099 376.093L229.497 374.609H232.312L233.154 384.479ZM237.267 381.311L237.358 384.479H234.864L235.002 381.556L234.864 374.609H237.404L237.267 381.311ZM242.983 374.456C243.861 374.456 244.748 374.63 245.646 374.976L245.248 377.057L244.881 377.195C244.493 376.94 244.106 376.741 243.718 376.598C243.33 376.456 242.994 376.384 242.708 376.384C242.371 376.384 242.101 376.471 241.897 376.644C241.703 376.807 241.606 377.001 241.606 377.226C241.606 377.481 241.729 377.7 241.974 377.884C242.229 378.057 242.626 378.266 243.167 378.511C243.738 378.776 244.197 379.021 244.544 379.245C244.901 379.46 245.207 379.75 245.462 380.118C245.728 380.485 245.86 380.934 245.86 381.464C245.86 382.056 245.697 382.591 245.37 383.071C245.054 383.55 244.6 383.933 244.009 384.218C243.417 384.494 242.734 384.632 241.958 384.632C240.928 384.632 239.908 384.428 238.898 384.019L239.25 381.801L239.51 381.648C239.939 382.005 240.403 382.285 240.902 382.489C241.413 382.683 241.851 382.78 242.218 382.78C242.606 382.78 242.897 382.693 243.091 382.52C243.295 382.347 243.397 382.143 243.397 381.908C243.397 381.632 243.269 381.403 243.014 381.219C242.759 381.036 242.361 380.822 241.821 380.577C241.27 380.322 240.816 380.087 240.459 379.873C240.112 379.648 239.811 379.353 239.556 378.985C239.301 378.618 239.173 378.169 239.173 377.639C239.173 377.037 239.332 376.496 239.648 376.017C239.974 375.527 240.423 375.145 240.994 374.869C241.576 374.594 242.239 374.456 242.983 374.456ZM250.784 374.456C251.661 374.456 252.548 374.63 253.446 374.976L253.048 377.057L252.681 377.195C252.293 376.94 251.906 376.741 251.518 376.598C251.13 376.456 250.794 376.384 250.508 376.384C250.172 376.384 249.901 376.471 249.697 376.644C249.503 376.807 249.406 377.001 249.406 377.226C249.406 377.481 249.529 377.7 249.774 377.884C250.029 378.057 250.427 378.266 250.967 378.511C251.538 378.776 251.997 379.021 252.344 379.245C252.701 379.46 253.007 379.75 253.262 380.118C253.528 380.485 253.66 380.934 253.66 381.464C253.66 382.056 253.497 382.591 253.171 383.071C252.854 383.55 252.4 383.933 251.809 384.218C251.217 384.494 250.534 384.632 249.758 384.632C248.728 384.632 247.708 384.428 246.698 384.019L247.05 381.801L247.31 381.648C247.739 382.005 248.203 382.285 248.703 382.489C249.213 382.683 249.651 382.78 250.018 382.78C250.406 382.78 250.697 382.693 250.891 382.52C251.095 382.347 251.197 382.143 251.197 381.908C251.197 381.632 251.069 381.403 250.814 381.219C250.559 381.036 250.161 380.822 249.621 380.577C249.07 380.322 248.616 380.087 248.259 379.873C247.912 379.648 247.611 379.353 247.356 378.985C247.101 378.618 246.974 378.169 246.974 377.639C246.974 377.037 247.132 376.496 247.448 376.017C247.774 375.527 248.223 375.145 248.794 374.869C249.376 374.594 250.039 374.456 250.784 374.456ZM257.574 381.311L257.666 384.479H255.171L255.309 381.556L255.171 374.609H257.711L257.574 381.311ZM263.874 374.456C265.282 374.456 266.368 374.879 267.133 375.726C267.898 376.563 268.281 377.756 268.281 379.307C268.281 381 267.862 382.316 267.026 383.254C266.189 384.183 265.011 384.647 263.491 384.647C262.094 384.647 261.012 384.218 260.247 383.362C259.482 382.494 259.1 381.27 259.1 379.689C259.1 378.016 259.513 376.726 260.339 375.818C261.176 374.91 262.354 374.456 263.874 374.456ZM263.66 376.445C263.18 376.445 262.798 376.542 262.512 376.736C262.226 376.92 262.017 377.226 261.885 377.654C261.752 378.072 261.686 378.644 261.686 379.368C261.686 380.235 261.752 380.918 261.885 381.418C262.017 381.908 262.226 382.26 262.512 382.474C262.808 382.688 263.206 382.795 263.706 382.795C264.195 382.795 264.583 382.704 264.868 382.52C265.154 382.326 265.358 382.015 265.48 381.587C265.613 381.158 265.679 380.572 265.679 379.827C265.679 378.97 265.613 378.297 265.48 377.807C265.348 377.318 265.139 376.971 264.853 376.767C264.567 376.552 264.17 376.445 263.66 376.445ZM278.052 381.357L278.144 384.479H275.451L271.947 378.373H271.794L271.779 381.005L271.871 384.479H269.621L269.744 381.571L269.621 374.609H272.299L275.818 380.714H275.971L275.91 374.701L278.19 374.563L278.052 381.357Z" fill="#B3B3B3"/>
</svg>
