<svg width="480" height="230" viewBox="0 0 480 230" fill="none" xmlns="http://www.w3.org/2000/svg">
<rect width="480" height="230" fill="#D9D9D9"/>
<rect x="175" y="50" width="130.659" height="130.659" fill="#DFDFDF"/>
<path fill-rule="evenodd" clip-rule="evenodd" d="M271.263 100.894C271.263 116.679 259.396 129.693 244.096 131.499L259.118 97.4259L248.615 100.529L247.239 108.007L240.981 126.255L240.705 127.045L240.617 126.255L238.639 108.337L238.598 103.481L232.39 105.242L232.945 110.742L227.535 126.255L227.234 127.146L227.131 126.255L225.395 111.424V107.254L219.176 109.049L221.426 125.147C214.241 119.505 209.625 110.739 209.625 100.894C209.625 83.8729 223.423 70.0747 240.444 70.0747C257.465 70.0747 271.263 83.8729 271.263 100.894ZM234.439 120.644L235.945 131.387C234.166 131.127 232.436 130.715 230.769 130.164L234.076 120.644L234.329 119.9L234.439 120.644ZM253.739 83.6495L250.974 79.3141L249.214 84.1459L244.237 85.4359L248.288 88.6022L247.977 93.7348L252.24 90.8599L257.026 92.7421L255.609 87.799L258.878 83.8296L253.739 83.6495Z" fill="#B3B3B3"/>
<path d="M208.275 147.894H205.669L204.435 143.658H204.282L203.063 147.894H200.442L197.867 138.065H200.275L200.427 139.406L201.844 145.38H201.997L203.444 140.412L202.835 138.065H205.334L205.547 139.65L207.025 145.38H207.178L208.839 139.543L209.098 138.065H211.384L208.275 147.894ZM216.136 137.913C217.538 137.913 218.62 138.334 219.382 139.177C220.144 140.011 220.525 141.199 220.525 142.743C220.525 144.43 220.108 145.74 219.275 146.675C218.442 147.599 217.269 148.062 215.755 148.062C214.363 148.062 213.286 147.635 212.524 146.782C211.762 145.918 211.381 144.699 211.381 143.124C211.381 141.458 211.793 140.173 212.616 139.269C213.449 138.365 214.622 137.913 216.136 137.913ZM215.923 139.894C215.445 139.894 215.064 139.99 214.78 140.183C214.495 140.366 214.287 140.671 214.155 141.098C214.023 141.514 213.957 142.083 213.957 142.804C213.957 143.668 214.023 144.348 214.155 144.846C214.287 145.334 214.495 145.684 214.78 145.898C215.074 146.111 215.471 146.218 215.968 146.218C216.456 146.218 216.842 146.126 217.127 145.943C217.411 145.75 217.614 145.441 217.736 145.014C217.868 144.587 217.934 144.003 217.934 143.261C217.934 142.408 217.868 141.738 217.736 141.25C217.604 140.762 217.396 140.417 217.111 140.214C216.827 140 216.431 139.894 215.923 139.894ZM227.559 144.008C228.403 145.319 229.164 146.421 229.845 147.315L229.815 147.589C229.043 147.843 228.225 148.001 227.361 148.062L227.117 147.864C226.508 146.726 225.98 145.684 225.533 144.74H224.237L224.329 147.894H221.845L221.982 144.983L221.845 138.065L225.99 138.05C227.056 138.05 227.874 138.309 228.443 138.827C229.022 139.335 229.312 140.066 229.312 141.021C229.312 141.621 229.159 142.18 228.855 142.698C228.55 143.216 228.118 143.653 227.559 144.008ZM224.283 142.88L225.609 142.941C225.985 142.799 226.259 142.591 226.432 142.317C226.615 142.042 226.706 141.687 226.706 141.25C226.706 140.772 226.579 140.422 226.325 140.198C226.081 139.965 225.695 139.838 225.167 139.817L224.344 139.863L224.283 142.88ZM236.74 146.05L236.572 147.894H231.04L231.177 144.983L231.04 138.065H233.555L233.417 144.74L233.463 145.867H236.587L236.74 146.05ZM241.988 138.004C243.43 138.004 244.533 138.4 245.295 139.193C246.057 139.975 246.438 141.108 246.438 142.591C246.438 144.338 246.001 145.679 245.127 146.614C244.253 147.549 243.004 148.016 241.378 148.016C240.444 148.016 239.265 147.975 237.843 147.894H237.828L237.965 144.983L237.828 138.065H237.843L241.988 138.004ZM241.835 146.142C243.187 146.142 243.862 145.156 243.862 143.185C243.862 142.027 243.7 141.199 243.375 140.701C243.049 140.204 242.521 139.955 241.79 139.955C241.251 139.955 240.759 139.975 240.312 140.016L240.22 144.74L240.251 146.02C240.85 146.101 241.378 146.142 241.835 146.142ZM259.691 147.894H257.085L255.851 143.658H255.698L254.479 147.894H251.858L249.283 138.065H251.691L251.843 139.406L253.26 145.38H253.412L254.86 140.412L254.251 138.065H256.75L256.963 139.65L258.441 145.38H258.594L260.255 139.543L260.514 138.065H262.8L259.691 147.894ZM266.203 144.74L266.295 147.894H263.811L263.948 144.983L263.811 138.065H266.341L266.203 144.74ZM271.897 137.913C272.771 137.913 273.654 138.085 274.548 138.431L274.152 140.503L273.786 140.64C273.4 140.386 273.014 140.188 272.628 140.046C272.242 139.904 271.907 139.833 271.623 139.833C271.287 139.833 271.018 139.919 270.815 140.092C270.622 140.254 270.525 140.447 270.525 140.671C270.525 140.925 270.647 141.143 270.891 141.326C271.145 141.499 271.541 141.707 272.08 141.951C272.649 142.215 273.106 142.459 273.451 142.682C273.807 142.896 274.112 143.185 274.366 143.551C274.63 143.917 274.762 144.364 274.762 144.892C274.762 145.481 274.599 146.015 274.274 146.492C273.959 146.97 273.507 147.351 272.918 147.635C272.329 147.909 271.648 148.046 270.876 148.046C269.85 148.046 268.834 147.843 267.828 147.437L268.179 145.227L268.438 145.075C268.864 145.43 269.327 145.71 269.824 145.913C270.332 146.106 270.769 146.203 271.135 146.203C271.521 146.203 271.811 146.116 272.004 145.943C272.207 145.771 272.308 145.568 272.308 145.334C272.308 145.06 272.181 144.831 271.927 144.648C271.673 144.465 271.277 144.252 270.739 144.008C270.19 143.754 269.738 143.521 269.382 143.307C269.037 143.084 268.737 142.789 268.483 142.423C268.229 142.058 268.102 141.611 268.102 141.082C268.102 140.483 268.26 139.944 268.575 139.467C268.9 138.979 269.347 138.598 269.916 138.324C270.495 138.05 271.155 137.913 271.897 137.913ZM282.774 145.883L282.911 146.065L282.759 147.894H276.267L276.404 144.983L276.267 138.065H282.85L282.987 138.248L282.819 140.077L280.427 139.985L278.751 140L278.72 141.966H280.32L281.92 141.92L282.058 142.103L281.905 143.932L280.153 143.886H278.675L278.659 144.74L278.69 145.959L280.305 145.974L282.774 145.883Z" fill="#B3B3B3"/>
<path d="M222.952 157.479H221.444L221.288 156.629L221.206 156.29L220.145 156.272L219.231 156.3L219.158 156.537L218.993 157.479H217.54L219.441 151.582H221.224L222.952 157.479ZM220.923 155.175L220.347 152.935H220.255L219.569 155.175L220.246 155.193L220.923 155.175ZM226.21 151.545C227.076 151.545 227.737 151.783 228.194 152.258C228.652 152.728 228.88 153.407 228.88 154.297C228.88 155.346 228.618 156.15 228.094 156.711C227.57 157.272 226.82 157.552 225.845 157.552C225.284 157.552 224.577 157.528 223.723 157.479H223.714L223.797 155.733L223.714 151.582H223.723L226.21 151.545ZM226.119 156.428C226.93 156.428 227.335 155.836 227.335 154.654C227.335 153.959 227.237 153.462 227.042 153.163C226.847 152.865 226.53 152.715 226.092 152.715C225.768 152.715 225.473 152.728 225.205 152.752L225.15 155.586L225.168 156.354C225.528 156.403 225.845 156.428 226.119 156.428ZM236.041 157.479H234.734L234.66 155.687L234.496 153.749H234.404L233.234 156.885H232.1L231.076 153.749H230.976L230.793 155.55L230.674 157.479H229.44L230.025 151.582H231.735L231.945 152.441L232.704 154.965H232.795L233.618 152.468L233.856 151.582H235.538L236.041 157.479ZM238.499 155.586L238.553 157.479H237.063L237.145 155.733L237.063 151.582H238.581L238.499 155.586ZM241.915 151.49C242.439 151.49 242.969 151.594 243.506 151.801L243.268 153.045L243.048 153.127C242.817 152.974 242.585 152.856 242.353 152.77C242.122 152.685 241.921 152.642 241.75 152.642C241.549 152.642 241.387 152.694 241.265 152.798C241.15 152.895 241.092 153.011 241.092 153.145C241.092 153.297 241.165 153.429 241.311 153.538C241.464 153.642 241.701 153.767 242.024 153.913C242.366 154.072 242.64 154.218 242.847 154.352C243.061 154.48 243.243 154.654 243.396 154.873C243.554 155.093 243.634 155.361 243.634 155.678C243.634 156.031 243.536 156.351 243.341 156.638C243.152 156.924 242.881 157.153 242.527 157.324C242.174 157.488 241.765 157.57 241.302 157.57C240.686 157.57 240.077 157.449 239.473 157.205L239.684 155.879L239.839 155.788C240.095 156.001 240.372 156.168 240.671 156.29C240.976 156.406 241.238 156.464 241.457 156.464C241.689 156.464 241.863 156.412 241.979 156.309C242.101 156.205 242.161 156.083 242.161 155.943C242.161 155.778 242.085 155.641 241.933 155.531C241.781 155.422 241.543 155.294 241.22 155.147C240.891 154.995 240.619 154.855 240.406 154.727C240.199 154.593 240.019 154.416 239.867 154.197C239.714 153.977 239.638 153.709 239.638 153.392C239.638 153.032 239.732 152.709 239.921 152.423C240.116 152.13 240.385 151.902 240.726 151.737C241.073 151.572 241.47 151.49 241.915 151.49ZM246.576 151.49C247.1 151.49 247.63 151.594 248.166 151.801L247.929 153.045L247.709 153.127C247.478 152.974 247.246 152.856 247.014 152.77C246.783 152.685 246.582 152.642 246.411 152.642C246.21 152.642 246.048 152.694 245.926 152.798C245.811 152.895 245.753 153.011 245.753 153.145C245.753 153.297 245.826 153.429 245.972 153.538C246.124 153.642 246.362 153.767 246.685 153.913C247.027 154.072 247.301 154.218 247.508 154.352C247.721 154.48 247.904 154.654 248.057 154.873C248.215 155.093 248.294 155.361 248.294 155.678C248.294 156.031 248.197 156.351 248.002 156.638C247.813 156.924 247.542 157.153 247.188 157.324C246.835 157.488 246.426 157.57 245.963 157.57C245.347 157.57 244.738 157.449 244.134 157.205L244.345 155.879L244.5 155.788C244.756 156.001 245.033 156.168 245.332 156.29C245.637 156.406 245.899 156.464 246.118 156.464C246.35 156.464 246.524 156.412 246.64 156.309C246.761 156.205 246.822 156.083 246.822 155.943C246.822 155.778 246.746 155.641 246.594 155.531C246.441 155.422 246.204 155.294 245.881 155.147C245.551 154.995 245.28 154.855 245.067 154.727C244.86 154.593 244.68 154.416 244.527 154.197C244.375 153.977 244.299 153.709 244.299 153.392C244.299 153.032 244.393 152.709 244.582 152.423C244.777 152.13 245.046 151.902 245.387 151.737C245.734 151.572 246.131 151.49 246.576 151.49ZM250.633 155.586L250.688 157.479H249.198L249.28 155.733L249.198 151.582H250.715L250.633 155.586ZM254.398 151.49C255.239 151.49 255.888 151.743 256.345 152.249C256.802 152.749 257.031 153.462 257.031 154.389C257.031 155.4 256.781 156.187 256.281 156.748C255.781 157.302 255.077 157.58 254.169 157.58C253.334 157.58 252.688 157.324 252.231 156.812C251.773 156.293 251.545 155.562 251.545 154.617C251.545 153.618 251.792 152.846 252.286 152.304C252.785 151.761 253.489 151.49 254.398 151.49ZM254.27 152.679C253.983 152.679 253.755 152.737 253.584 152.853C253.413 152.962 253.288 153.145 253.209 153.401C253.13 153.651 253.09 153.992 253.09 154.425C253.09 154.943 253.13 155.352 253.209 155.65C253.288 155.943 253.413 156.153 253.584 156.281C253.761 156.409 253.998 156.473 254.297 156.473C254.59 156.473 254.821 156.418 254.992 156.309C255.163 156.193 255.284 156.007 255.358 155.751C255.437 155.495 255.477 155.144 255.477 154.699C255.477 154.187 255.437 153.785 255.358 153.493C255.278 153.2 255.153 152.993 254.983 152.871C254.812 152.743 254.574 152.679 254.27 152.679ZM262.87 155.614L262.925 157.479H261.316L259.222 153.831H259.13L259.121 155.403L259.176 157.479H257.832L257.905 155.742L257.832 151.582H259.432L261.535 155.23H261.626L261.59 151.636L262.952 151.554L262.87 155.614Z" fill="#B3B3B3"/>
</svg>
