<svg width="569" height="368" viewBox="0 0 569 368" fill="none" xmlns="http://www.w3.org/2000/svg">
<rect width="569" height="368" fill="#D9D9D9"/>
<rect x="176" y="75" width="218.659" height="218.659" fill="#DFDFDF"/>
<path fill-rule="evenodd" clip-rule="evenodd" d="M337.1 160.171C337.1 186.588 317.239 208.366 291.634 211.389L316.774 154.367L299.197 159.56L296.895 172.075L286.421 202.614L285.96 203.935L285.813 202.614L282.502 172.628L282.434 164.5L272.044 167.447L272.974 176.652L263.919 202.614L263.415 204.104L263.243 202.614L260.338 177.793V170.815L249.931 173.818L253.697 200.759C241.672 191.316 233.947 176.646 233.947 160.171C233.947 131.686 257.039 108.595 285.523 108.595C314.008 108.595 337.1 131.686 337.1 160.171ZM275.474 193.223L277.994 211.201C275.016 210.766 272.121 210.076 269.331 209.154L274.866 193.223L275.288 191.978L275.474 193.223ZM307.77 131.313L303.143 124.057L300.198 132.143L291.868 134.302L298.649 139.601L298.128 148.19L305.262 143.379L313.271 146.529L310.9 138.257L316.37 131.614L307.77 131.313Z" fill="#B3B3B3"/>
<path d="M231.687 238.397H227.326L225.26 231.308H225.005L222.965 238.397H218.579L214.269 221.949H218.298L218.553 224.193L220.925 234.19H221.18L223.603 225.876L222.583 221.949H226.765L227.122 224.601L229.596 234.19H229.851L232.631 224.422L233.064 221.949H236.889L231.687 238.397ZM244.843 221.694C247.189 221.694 248.999 222.399 250.274 223.81C251.55 225.204 252.187 227.193 252.187 229.778C252.187 232.6 251.49 234.793 250.096 236.357C248.702 237.904 246.738 238.678 244.205 238.678C241.876 238.678 240.074 237.964 238.799 236.536C237.523 235.091 236.886 233.051 236.886 230.415C236.886 227.627 237.574 225.476 238.952 223.963C240.346 222.45 242.309 221.694 244.843 221.694ZM244.486 225.009C243.686 225.009 243.049 225.17 242.573 225.493C242.097 225.799 241.748 226.309 241.527 227.023C241.306 227.721 241.196 228.673 241.196 229.88C241.196 231.325 241.306 232.464 241.527 233.297C241.748 234.113 242.097 234.7 242.573 235.057C243.066 235.414 243.729 235.592 244.562 235.592C245.378 235.592 246.024 235.439 246.5 235.133C246.976 234.81 247.316 234.292 247.52 233.578C247.741 232.863 247.852 231.886 247.852 230.645C247.852 229.217 247.741 228.095 247.52 227.279C247.299 226.462 246.951 225.884 246.475 225.544C245.999 225.187 245.336 225.009 244.486 225.009ZM263.96 231.894C265.371 234.088 266.646 235.932 267.785 237.428L267.734 237.887C266.442 238.312 265.073 238.576 263.628 238.678L263.22 238.346C262.2 236.442 261.316 234.7 260.568 233.119H258.4L258.553 238.397H254.396L254.626 233.527L254.396 221.949L261.333 221.923C263.118 221.923 264.487 222.357 265.439 223.224C266.408 224.074 266.892 225.298 266.892 226.896C266.892 227.899 266.637 228.834 266.127 229.701C265.617 230.568 264.895 231.299 263.96 231.894ZM258.477 230.007L260.695 230.109C261.324 229.871 261.783 229.523 262.072 229.064C262.378 228.605 262.531 228.01 262.531 227.279C262.531 226.479 262.319 225.893 261.894 225.519C261.486 225.128 260.84 224.915 259.956 224.881L258.579 224.958L258.477 230.007ZM279.323 235.312L279.042 238.397H269.785L270.014 233.527L269.785 221.949H273.993L273.763 233.119L273.84 235.006H279.068L279.323 235.312ZM288.106 221.847C290.52 221.847 292.365 222.51 293.64 223.836C294.915 225.145 295.552 227.04 295.552 229.523C295.552 232.447 294.821 234.691 293.359 236.255C291.897 237.819 289.806 238.601 287.086 238.601C285.522 238.601 283.549 238.533 281.169 238.397H281.144L281.373 233.527L281.144 221.949H281.169L288.106 221.847ZM287.851 235.465C290.112 235.465 291.243 233.816 291.243 230.517C291.243 228.579 290.971 227.193 290.427 226.36C289.882 225.527 288.998 225.111 287.774 225.111C286.873 225.111 286.049 225.145 285.301 225.213L285.148 233.119L285.199 235.261C286.202 235.397 287.086 235.465 287.851 235.465ZM317.732 238.397H313.371L311.305 231.308H311.05L309.01 238.397H304.624L300.314 221.949H304.343L304.598 224.193L306.97 234.19H307.225L309.648 225.876L308.628 221.949H312.81L313.167 224.601L315.641 234.19H315.896L318.676 224.422L319.109 221.949H322.934L317.732 238.397ZM328.631 233.119L328.784 238.397H324.627L324.856 233.527L324.627 221.949H328.86L328.631 233.119ZM338.159 221.694C339.621 221.694 341.1 221.983 342.596 222.561L341.933 226.029L341.321 226.258C340.675 225.833 340.029 225.502 339.383 225.264C338.737 225.026 338.176 224.907 337.7 224.907C337.139 224.907 336.688 225.051 336.348 225.34C336.025 225.612 335.864 225.935 335.864 226.309C335.864 226.734 336.068 227.1 336.476 227.406C336.901 227.695 337.564 228.044 338.465 228.452C339.417 228.894 340.182 229.302 340.76 229.676C341.355 230.033 341.865 230.517 342.29 231.129C342.732 231.741 342.953 232.489 342.953 233.374C342.953 234.36 342.681 235.252 342.137 236.051C341.61 236.85 340.854 237.488 339.867 237.964C338.881 238.423 337.742 238.652 336.45 238.652C334.733 238.652 333.033 238.312 331.35 237.632L331.936 233.935L332.37 233.68C333.084 234.275 333.857 234.742 334.691 235.082C335.541 235.405 336.272 235.567 336.884 235.567C337.53 235.567 338.014 235.422 338.337 235.133C338.677 234.844 338.847 234.504 338.847 234.113C338.847 233.654 338.635 233.272 338.21 232.965C337.785 232.659 337.122 232.302 336.221 231.894C335.303 231.469 334.546 231.078 333.951 230.721C333.373 230.347 332.871 229.854 332.446 229.242C332.021 228.63 331.809 227.882 331.809 226.998C331.809 225.995 332.072 225.094 332.599 224.295C333.143 223.479 333.891 222.841 334.844 222.382C335.813 221.923 336.918 221.694 338.159 221.694ZM356.361 235.031L356.591 235.337L356.336 238.397H345.472L345.702 233.527L345.472 221.949H356.489L356.718 222.255L356.438 225.315L352.434 225.162L349.629 225.187L349.578 228.477H352.256L354.933 228.401L355.163 228.707L354.908 231.767L351.975 231.69H349.501L349.476 233.119L349.527 235.159L352.23 235.184L356.361 235.031Z" fill="#B3B3B3"/>
<path d="M256.25 255.479H253.725L253.465 254.055L253.327 253.489L251.552 253.459L250.022 253.505L249.9 253.902L249.625 255.479H247.192L250.374 245.609H253.358L256.25 255.479ZM252.853 251.623L251.889 247.874H251.736L250.589 251.623L251.721 251.653L252.853 251.623ZM261.702 245.548C263.151 245.548 264.258 245.946 265.023 246.741C265.788 247.527 266.17 248.664 266.17 250.154C266.17 251.908 265.732 253.255 264.854 254.193C263.977 255.132 262.722 255.601 261.09 255.601C260.152 255.601 258.968 255.56 257.54 255.479H257.525L257.663 252.556L257.525 245.609H257.54L261.702 245.548ZM261.549 253.719C262.906 253.719 263.584 252.729 263.584 250.75C263.584 249.588 263.421 248.756 263.095 248.256C262.768 247.756 262.238 247.507 261.503 247.507C260.963 247.507 260.468 247.527 260.019 247.568L259.927 252.311L259.958 253.596C260.56 253.678 261.09 253.719 261.549 253.719ZM278.154 255.479H275.966L275.843 252.479L275.568 249.236H275.415L273.456 254.484L271.559 254.484L269.845 249.236H269.677L269.371 252.25L269.172 255.479H267.106L268.086 245.609H270.947L271.299 247.047L272.569 251.271H272.722L274.099 247.093L274.497 245.609H277.312L278.154 255.479ZM282.267 252.311L282.358 255.479H279.864L280.002 252.556L279.864 245.609H282.404L282.267 252.311ZM287.983 245.456C288.861 245.456 289.748 245.63 290.646 245.976L290.248 248.057L289.881 248.195C289.493 247.94 289.106 247.741 288.718 247.598C288.33 247.456 287.994 247.384 287.708 247.384C287.371 247.384 287.101 247.471 286.897 247.644C286.703 247.807 286.606 248.001 286.606 248.226C286.606 248.481 286.729 248.7 286.974 248.884C287.229 249.057 287.626 249.266 288.167 249.511C288.738 249.776 289.197 250.021 289.544 250.245C289.901 250.46 290.207 250.75 290.462 251.118C290.728 251.485 290.86 251.934 290.86 252.464C290.86 253.056 290.697 253.591 290.37 254.071C290.054 254.55 289.6 254.933 289.009 255.218C288.417 255.494 287.734 255.632 286.958 255.632C285.928 255.632 284.908 255.428 283.898 255.019L284.25 252.801L284.51 252.648C284.939 253.005 285.403 253.285 285.902 253.489C286.413 253.683 286.851 253.78 287.218 253.78C287.606 253.78 287.897 253.693 288.091 253.52C288.295 253.347 288.397 253.143 288.397 252.908C288.397 252.632 288.269 252.403 288.014 252.219C287.759 252.036 287.361 251.822 286.821 251.577C286.27 251.322 285.816 251.087 285.459 250.873C285.112 250.648 284.811 250.353 284.556 249.985C284.301 249.618 284.173 249.169 284.173 248.639C284.173 248.037 284.332 247.496 284.648 247.017C284.974 246.527 285.423 246.145 285.994 245.869C286.576 245.594 287.239 245.456 287.983 245.456ZM295.784 245.456C296.661 245.456 297.548 245.63 298.446 245.976L298.048 248.057L297.681 248.195C297.293 247.94 296.906 247.741 296.518 247.598C296.13 247.456 295.794 247.384 295.508 247.384C295.172 247.384 294.901 247.471 294.697 247.644C294.503 247.807 294.406 248.001 294.406 248.226C294.406 248.481 294.529 248.7 294.774 248.884C295.029 249.057 295.427 249.266 295.967 249.511C296.538 249.776 296.997 250.021 297.344 250.245C297.701 250.46 298.007 250.75 298.262 251.118C298.528 251.485 298.66 251.934 298.66 252.464C298.66 253.056 298.497 253.591 298.171 254.071C297.854 254.55 297.4 254.933 296.809 255.218C296.217 255.494 295.534 255.632 294.758 255.632C293.728 255.632 292.708 255.428 291.698 255.019L292.05 252.801L292.31 252.648C292.739 253.005 293.203 253.285 293.703 253.489C294.213 253.683 294.651 253.78 295.018 253.78C295.406 253.78 295.697 253.693 295.891 253.52C296.095 253.347 296.197 253.143 296.197 252.908C296.197 252.632 296.069 252.403 295.814 252.219C295.559 252.036 295.161 251.822 294.621 251.577C294.07 251.322 293.616 251.087 293.259 250.873C292.912 250.648 292.611 250.353 292.356 249.985C292.101 249.618 291.974 249.169 291.974 248.639C291.974 248.037 292.132 247.496 292.448 247.017C292.774 246.527 293.223 246.145 293.794 245.869C294.376 245.594 295.039 245.456 295.784 245.456ZM302.574 252.311L302.666 255.479H300.171L300.309 252.556L300.171 245.609H302.711L302.574 252.311ZM308.874 245.456C310.282 245.456 311.368 245.879 312.133 246.726C312.898 247.563 313.281 248.756 313.281 250.307C313.281 252 312.862 253.316 312.026 254.254C311.189 255.183 310.011 255.647 308.491 255.647C307.094 255.647 306.012 255.218 305.247 254.362C304.482 253.494 304.1 252.27 304.1 250.689C304.1 249.016 304.513 247.726 305.339 246.818C306.176 245.91 307.354 245.456 308.874 245.456ZM308.66 247.445C308.18 247.445 307.798 247.542 307.512 247.736C307.226 247.92 307.017 248.226 306.885 248.654C306.752 249.072 306.686 249.644 306.686 250.368C306.686 251.235 306.752 251.918 306.885 252.418C307.017 252.908 307.226 253.26 307.512 253.474C307.808 253.688 308.206 253.795 308.706 253.795C309.195 253.795 309.583 253.704 309.868 253.52C310.154 253.326 310.358 253.015 310.48 252.587C310.613 252.158 310.679 251.572 310.679 250.827C310.679 249.97 310.613 249.297 310.48 248.807C310.348 248.318 310.139 247.971 309.853 247.767C309.567 247.552 309.17 247.445 308.66 247.445ZM323.052 252.357L323.144 255.479H320.451L316.947 249.373H316.794L316.779 252.005L316.871 255.479H314.621L314.744 252.571L314.621 245.609H317.299L320.818 251.714H320.971L320.91 245.701L323.19 245.563L323.052 252.357Z" fill="#B3B3B3"/>
</svg>
