<svg width="560" height="652" viewBox="0 0 560 652" fill="none" xmlns="http://www.w3.org/2000/svg">
<rect width="560" height="652" fill="#D9D9D9"/>
<rect x="172" y="217" width="218.659" height="218.659" fill="#DFDFDF"/>
<path fill-rule="evenodd" clip-rule="evenodd" d="M333.1 302.171C333.1 328.588 313.239 350.366 287.634 353.389L312.774 296.367L295.197 301.56L292.895 314.075L282.421 344.614L281.96 345.935L281.813 344.614L278.502 314.628L278.434 306.5L268.044 309.447L268.974 318.652L259.919 344.614L259.415 346.104L259.243 344.614L256.338 319.793V312.815L245.931 315.818L249.697 342.759C237.672 333.316 229.947 318.646 229.947 302.171C229.947 273.686 253.039 250.595 281.523 250.595C310.008 250.595 333.1 273.686 333.1 302.171ZM271.474 335.223L273.994 353.201C271.016 352.766 268.121 352.076 265.331 351.154L270.866 335.223L271.288 333.978L271.474 335.223ZM303.77 273.313L299.143 266.057L296.198 274.143L287.868 276.302L294.649 281.601L294.128 290.19L301.262 285.379L309.271 288.529L306.9 280.257L312.37 273.614L303.77 273.313Z" fill="#B3B3B3"/>
<path d="M227.687 380.397H223.326L221.26 373.308H221.005L218.965 380.397H214.579L210.269 363.949H214.298L214.553 366.193L216.925 376.19H217.18L219.603 367.876L218.583 363.949H222.765L223.122 366.601L225.596 376.19H225.851L228.631 366.422L229.064 363.949H232.889L227.687 380.397ZM240.843 363.694C243.189 363.694 244.999 364.399 246.274 365.81C247.55 367.204 248.187 369.193 248.187 371.778C248.187 374.6 247.49 376.793 246.096 378.357C244.702 379.904 242.738 380.678 240.205 380.678C237.876 380.678 236.074 379.964 234.799 378.536C233.523 377.091 232.886 375.051 232.886 372.415C232.886 369.627 233.574 367.476 234.952 365.963C236.346 364.45 238.309 363.694 240.843 363.694ZM240.486 367.009C239.686 367.009 239.049 367.17 238.573 367.493C238.097 367.799 237.748 368.309 237.527 369.023C237.306 369.721 237.196 370.673 237.196 371.88C237.196 373.325 237.306 374.464 237.527 375.297C237.748 376.113 238.097 376.7 238.573 377.057C239.066 377.414 239.729 377.592 240.562 377.592C241.378 377.592 242.024 377.439 242.5 377.133C242.976 376.81 243.316 376.292 243.52 375.578C243.741 374.863 243.852 373.886 243.852 372.645C243.852 371.217 243.741 370.095 243.52 369.279C243.299 368.462 242.951 367.884 242.475 367.544C241.999 367.187 241.336 367.009 240.486 367.009ZM259.96 373.894C261.371 376.088 262.646 377.932 263.785 379.428L263.734 379.887C262.442 380.312 261.073 380.576 259.628 380.678L259.22 380.346C258.2 378.442 257.316 376.7 256.568 375.119H254.4L254.553 380.397H250.396L250.626 375.527L250.396 363.949L257.333 363.923C259.118 363.923 260.487 364.357 261.439 365.224C262.408 366.074 262.892 367.298 262.892 368.896C262.892 369.899 262.637 370.834 262.127 371.701C261.617 372.568 260.895 373.299 259.96 373.894ZM254.477 372.007L256.695 372.109C257.324 371.871 257.783 371.523 258.072 371.064C258.378 370.605 258.531 370.01 258.531 369.279C258.531 368.479 258.319 367.893 257.894 367.519C257.486 367.128 256.84 366.915 255.956 366.881L254.579 366.958L254.477 372.007ZM275.323 377.312L275.042 380.397H265.785L266.014 375.527L265.785 363.949H269.993L269.763 375.119L269.84 377.006H275.068L275.323 377.312ZM284.106 363.847C286.52 363.847 288.365 364.51 289.64 365.836C290.915 367.145 291.552 369.04 291.552 371.523C291.552 374.447 290.821 376.691 289.359 378.255C287.897 379.819 285.806 380.601 283.086 380.601C281.522 380.601 279.549 380.533 277.169 380.397H277.144L277.373 375.527L277.144 363.949H277.169L284.106 363.847ZM283.851 377.465C286.112 377.465 287.243 375.816 287.243 372.517C287.243 370.579 286.971 369.193 286.427 368.36C285.882 367.527 284.998 367.111 283.774 367.111C282.873 367.111 282.049 367.145 281.301 367.213L281.148 375.119L281.199 377.261C282.202 377.397 283.086 377.465 283.851 377.465ZM313.732 380.397H309.371L307.305 373.308H307.05L305.01 380.397H300.624L296.314 363.949H300.343L300.598 366.193L302.97 376.19H303.225L305.648 367.876L304.628 363.949H308.81L309.167 366.601L311.641 376.19H311.896L314.676 366.422L315.109 363.949H318.934L313.732 380.397ZM324.631 375.119L324.784 380.397H320.627L320.856 375.527L320.627 363.949H324.86L324.631 375.119ZM334.159 363.694C335.621 363.694 337.1 363.983 338.596 364.561L337.933 368.029L337.321 368.258C336.675 367.833 336.029 367.502 335.383 367.264C334.737 367.026 334.176 366.907 333.7 366.907C333.139 366.907 332.688 367.051 332.348 367.34C332.025 367.612 331.864 367.935 331.864 368.309C331.864 368.734 332.068 369.1 332.476 369.406C332.901 369.695 333.564 370.044 334.465 370.452C335.417 370.894 336.182 371.302 336.76 371.676C337.355 372.033 337.865 372.517 338.29 373.129C338.732 373.741 338.953 374.489 338.953 375.374C338.953 376.36 338.681 377.252 338.137 378.051C337.61 378.85 336.854 379.488 335.867 379.964C334.881 380.423 333.742 380.652 332.45 380.652C330.733 380.652 329.033 380.312 327.35 379.632L327.936 375.935L328.37 375.68C329.084 376.275 329.857 376.742 330.691 377.082C331.541 377.405 332.272 377.567 332.884 377.567C333.53 377.567 334.014 377.422 334.337 377.133C334.677 376.844 334.847 376.504 334.847 376.113C334.847 375.654 334.635 375.272 334.21 374.965C333.785 374.659 333.122 374.302 332.221 373.894C331.303 373.469 330.546 373.078 329.951 372.721C329.373 372.347 328.871 371.854 328.446 371.242C328.021 370.63 327.809 369.882 327.809 368.998C327.809 367.995 328.072 367.094 328.599 366.295C329.143 365.479 329.891 364.841 330.844 364.382C331.813 363.923 332.918 363.694 334.159 363.694ZM352.361 377.031L352.591 377.337L352.336 380.397H341.472L341.702 375.527L341.472 363.949H352.489L352.718 364.255L352.438 367.315L348.434 367.162L345.629 367.187L345.578 370.477H348.256L350.933 370.401L351.163 370.707L350.908 373.767L347.975 373.69H345.501L345.476 375.119L345.527 377.159L348.23 377.184L352.361 377.031Z" fill="#B3B3B3"/>
<path d="M252.25 397.479H249.725L249.465 396.055L249.327 395.489L247.552 395.459L246.022 395.505L245.9 395.902L245.625 397.479H243.192L246.374 387.609H249.358L252.25 397.479ZM248.853 393.623L247.889 389.874H247.736L246.589 393.623L247.721 393.653L248.853 393.623ZM257.702 387.548C259.151 387.548 260.258 387.946 261.023 388.741C261.788 389.527 262.17 390.664 262.17 392.154C262.17 393.908 261.732 395.255 260.854 396.193C259.977 397.132 258.722 397.601 257.09 397.601C256.152 397.601 254.968 397.56 253.54 397.479H253.525L253.663 394.556L253.525 387.609H253.54L257.702 387.548ZM257.549 395.719C258.906 395.719 259.584 394.729 259.584 392.75C259.584 391.588 259.421 390.756 259.095 390.256C258.768 389.756 258.238 389.507 257.503 389.507C256.963 389.507 256.468 389.527 256.019 389.568L255.927 394.311L255.958 395.596C256.56 395.678 257.09 395.719 257.549 395.719ZM274.154 397.479H271.966L271.843 394.479L271.568 391.236H271.415L269.456 396.484H267.559L265.845 391.236H265.677L265.371 394.25L265.172 397.479H263.106L264.086 387.609H266.947L267.299 389.047L268.569 393.271H268.722L270.099 389.093L270.497 387.609H273.312L274.154 397.479ZM278.267 394.311L278.358 397.479H275.864L276.002 394.556L275.864 387.609H278.404L278.267 394.311ZM283.983 387.456C284.861 387.456 285.748 387.63 286.646 387.976L286.248 390.057L285.881 390.195C285.493 389.94 285.106 389.741 284.718 389.598C284.33 389.456 283.994 389.384 283.708 389.384C283.371 389.384 283.101 389.471 282.897 389.644C282.703 389.807 282.606 390.001 282.606 390.226C282.606 390.481 282.729 390.7 282.974 390.884C283.229 391.057 283.626 391.266 284.167 391.511C284.738 391.776 285.197 392.021 285.544 392.245C285.901 392.46 286.207 392.75 286.462 393.118C286.728 393.485 286.86 393.934 286.86 394.464C286.86 395.056 286.697 395.591 286.37 396.071C286.054 396.55 285.6 396.933 285.009 397.218C284.417 397.494 283.734 397.632 282.958 397.632C281.928 397.632 280.908 397.428 279.898 397.019L280.25 394.801L280.51 394.648C280.939 395.005 281.403 395.285 281.902 395.489C282.413 395.683 282.851 395.78 283.218 395.78C283.606 395.78 283.897 395.693 284.091 395.52C284.295 395.347 284.397 395.143 284.397 394.908C284.397 394.632 284.269 394.403 284.014 394.219C283.759 394.036 283.361 393.822 282.821 393.577C282.27 393.322 281.816 393.087 281.459 392.873C281.112 392.648 280.811 392.353 280.556 391.985C280.301 391.618 280.173 391.169 280.173 390.639C280.173 390.037 280.332 389.496 280.648 389.017C280.974 388.527 281.423 388.145 281.994 387.869C282.576 387.594 283.239 387.456 283.983 387.456ZM291.784 387.456C292.661 387.456 293.548 387.63 294.446 387.976L294.048 390.057L293.681 390.195C293.293 389.94 292.906 389.741 292.518 389.598C292.13 389.456 291.794 389.384 291.508 389.384C291.172 389.384 290.901 389.471 290.697 389.644C290.503 389.807 290.406 390.001 290.406 390.226C290.406 390.481 290.529 390.7 290.774 390.884C291.029 391.057 291.427 391.266 291.967 391.511C292.538 391.776 292.997 392.021 293.344 392.245C293.701 392.46 294.007 392.75 294.262 393.118C294.528 393.485 294.66 393.934 294.66 394.464C294.66 395.056 294.497 395.591 294.171 396.071C293.854 396.55 293.4 396.933 292.809 397.218C292.217 397.494 291.534 397.632 290.758 397.632C289.728 397.632 288.708 397.428 287.698 397.019L288.05 394.801L288.31 394.648C288.739 395.005 289.203 395.285 289.703 395.489C290.213 395.683 290.651 395.78 291.018 395.78C291.406 395.78 291.697 395.693 291.891 395.52C292.095 395.347 292.197 395.143 292.197 394.908C292.197 394.632 292.069 394.403 291.814 394.219C291.559 394.036 291.161 393.822 290.621 393.577C290.07 393.322 289.616 393.087 289.259 392.873C288.912 392.648 288.611 392.353 288.356 391.985C288.101 391.618 287.974 391.169 287.974 390.639C287.974 390.037 288.132 389.496 288.448 389.017C288.774 388.527 289.223 388.145 289.794 387.869C290.376 387.594 291.039 387.456 291.784 387.456ZM298.574 394.311L298.666 397.479H296.171L296.309 394.556L296.171 387.609H298.711L298.574 394.311ZM304.874 387.456C306.282 387.456 307.368 387.879 308.133 388.726C308.898 389.563 309.281 390.756 309.281 392.307C309.281 394 308.862 395.316 308.026 396.254C307.189 397.183 306.011 397.647 304.491 397.647C303.094 397.647 302.012 397.218 301.247 396.362C300.482 395.494 300.1 394.27 300.1 392.689C300.1 391.016 300.513 389.726 301.339 388.818C302.176 387.91 303.354 387.456 304.874 387.456ZM304.66 389.445C304.18 389.445 303.798 389.542 303.512 389.736C303.226 389.92 303.017 390.226 302.885 390.654C302.752 391.072 302.686 391.644 302.686 392.368C302.686 393.235 302.752 393.918 302.885 394.418C303.017 394.908 303.226 395.26 303.512 395.474C303.808 395.688 304.206 395.795 304.706 395.795C305.195 395.795 305.583 395.704 305.868 395.52C306.154 395.326 306.358 395.015 306.48 394.587C306.613 394.158 306.679 393.572 306.679 392.827C306.679 391.97 306.613 391.297 306.48 390.807C306.348 390.318 306.139 389.971 305.853 389.767C305.567 389.552 305.17 389.445 304.66 389.445ZM319.052 394.357L319.144 397.479H316.451L312.947 391.373H312.794L312.779 394.005L312.871 397.479H310.621L310.744 394.571L310.621 387.609H313.299L316.818 393.714H316.971L316.91 387.701L319.19 387.563L319.052 394.357Z" fill="#B3B3B3"/>
</svg>
